<svg width="24" height="24" viewBox="0 0 24 24" fill="none" xmlns="http://www.w3.org/2000/svg">
<g opacity="0.8">
<path d="M6.75 3C5.75544 3 4.80161 3.39509 4.09835 4.09835C3.39509 4.80161 3 5.75544 3 6.75V17.25C3 18.2446 3.39509 19.1984 4.09835 19.9016C4.80161 20.6049 5.75544 21 6.75 21H17.25C18.2446 21 19.1984 20.6049 19.9016 19.9016C20.6049 19.1984 21 18.2446 21 17.25V6.75C21 5.75544 20.6049 4.80161 19.9016 4.09835C19.1984 3.39509 18.2446 3 17.25 3H6.75ZM16.281 10.281C16.4218 10.1402 16.5009 9.94916 16.5009 9.75C16.5009 9.55084 16.4218 9.35983 16.281 9.219C16.1402 9.07817 15.9492 8.99905 15.75 8.99905C15.5508 8.99905 15.3598 9.07817 15.219 9.219L10.5 13.9395L8.781 12.219C8.64017 12.0782 8.44916 11.9991 8.25 11.9991C8.05084 11.9991 7.85983 12.0782 7.719 12.219C7.57817 12.3598 7.49905 12.5508 7.49905 12.75C7.49905 12.9492 7.57817 13.1402 7.719 13.281L9.969 15.531C10.0387 15.6008 10.1214 15.6563 10.2125 15.6941C10.3037 15.7319 10.4013 15.7513 10.5 15.7513C10.5987 15.7513 10.6963 15.7319 10.7875 15.6941C10.8786 15.6563 10.9613 15.6008 11.031 15.531L16.281 10.281Z" fill="black"/>
<path d="M16.5009 9.75095C16.5009 9.95011 16.4218 10.1411 16.281 10.2819L11.031 15.5319C10.9613 15.6018 10.8785 15.6572 10.7874 15.695C10.6963 15.7328 10.5986 15.7523 10.5 15.7523C10.4013 15.7523 10.3036 15.7328 10.2125 15.695C10.1214 15.6572 10.0386 15.6018 9.96897 15.5319L7.71897 13.2819C7.57814 13.1411 7.49902 12.9501 7.49902 12.7509C7.49902 12.5518 7.57814 12.3608 7.71897 12.2199C7.8598 12.0791 8.05081 12 8.24997 12C8.44914 12 8.64014 12.0791 8.78097 12.2199L10.5 13.9404L15.219 9.21995C15.3598 9.07912 15.5508 9 15.75 9C15.9491 9 16.1401 9.07912 16.281 9.21995C16.4218 9.36078 16.5009 9.55178 16.5009 9.75095Z" fill="white"/>
</g>
</svg>
