<svg width="10" height="7" viewBox="0 0 10 7" fill="none" xmlns="http://www.w3.org/2000/svg">
<path d="M9.50092 0.750948C9.50092 0.950112 9.4218 1.14112 9.28097 1.28195L4.03097 6.53195C3.9613 6.60179 3.87854 6.65721 3.78742 6.69502C3.6963 6.73283 3.59862 6.75229 3.49997 6.75229C3.40132 6.75229 3.30364 6.73283 3.21252 6.69502C3.1214 6.65721 3.03864 6.60179 2.96897 6.53195L0.718971 4.28195C0.578141 4.14112 0.499023 3.95011 0.499023 3.75095C0.499023 3.55178 0.578141 3.36078 0.718971 3.21995C0.859801 3.07912 1.05081 3 1.24997 3C1.44914 3 1.64014 3.07912 1.78097 3.21995L3.49997 4.94045L8.21897 0.219948C8.3598 0.0791179 8.55081 0 8.74997 0C8.94913 0 9.14014 0.0791179 9.28097 0.219948C9.4218 0.360778 9.50092 0.551784 9.50092 0.750948Z" fill="white"/>
</svg>
