<svg width="135" height="38" viewBox="0 0 135 38" fill="none" xmlns="http://www.w3.org/2000/svg">
<g opacity="0.6">
<path d="M6.83239 0.136353L13.8636 22.2386H14.1335L21.179 0.136353H27.9972L17.9688 29.2273H10.0426L0 0.136353H6.83239Z" fill="black"/>
<path d="M38.782 29.6534C36.5755 29.6534 34.6674 29.1846 33.0575 28.2471C31.4572 27.3002 30.2214 25.9839 29.3501 24.2983C28.4789 22.6032 28.0433 20.6382 28.0433 18.4034C28.0433 16.1496 28.4789 14.1799 29.3501 12.4943C30.2214 10.7992 31.4572 9.48294 33.0575 8.54544C34.6674 7.59847 36.5755 7.12499 38.782 7.12499C40.9884 7.12499 42.8918 7.59847 44.4922 8.54544C46.102 9.48294 47.3426 10.7992 48.2138 12.4943C49.085 14.1799 49.5206 16.1496 49.5206 18.4034C49.5206 20.6382 49.085 22.6032 48.2138 24.2983C47.3426 25.9839 46.102 27.3002 44.4922 28.2471C42.8918 29.1846 40.9884 29.6534 38.782 29.6534ZM38.8104 24.9659C39.8142 24.9659 40.6522 24.6818 41.3246 24.1136C41.9969 23.536 42.5036 22.75 42.8445 21.7557C43.1948 20.7614 43.37 19.6297 43.37 18.3608C43.37 17.0918 43.1948 15.9602 42.8445 14.9659C42.5036 13.9716 41.9969 13.1856 41.3246 12.6079C40.6522 12.0303 39.8142 11.7415 38.8104 11.7415C37.7971 11.7415 36.9448 12.0303 36.2536 12.6079C35.5717 13.1856 35.0556 13.9716 34.7053 14.9659C34.3643 15.9602 34.1939 17.0918 34.1939 18.3608C34.1939 19.6297 34.3643 20.7614 34.7053 21.7557C35.0556 22.75 35.5717 23.536 36.2536 24.1136C36.9448 24.6818 37.7971 24.9659 38.8104 24.9659Z" fill="black"/>
<path d="M63.3132 29.6534C61.1068 29.6534 59.1986 29.1846 57.5888 28.2471C55.9884 27.3002 54.7526 25.9839 53.8814 24.2983C53.0102 22.6032 52.5746 20.6382 52.5746 18.4034C52.5746 16.1496 53.0102 14.1799 53.8814 12.4943C54.7526 10.7992 55.9884 9.48294 57.5888 8.54544C59.1986 7.59847 61.1068 7.12499 63.3132 7.12499C65.5196 7.12499 67.4231 7.59847 69.0234 8.54544C70.6333 9.48294 71.8738 10.7992 72.745 12.4943C73.6162 14.1799 74.0518 16.1496 74.0518 18.4034C74.0518 20.6382 73.6162 22.6032 72.745 24.2983C71.8738 25.9839 70.6333 27.3002 69.0234 28.2471C67.4231 29.1846 65.5196 29.6534 63.3132 29.6534ZM63.3416 24.9659C64.3454 24.9659 65.1835 24.6818 65.8558 24.1136C66.5282 23.536 67.0348 22.75 67.3757 21.7557C67.7261 20.7614 67.9013 19.6297 67.9013 18.3608C67.9013 17.0918 67.7261 15.9602 67.3757 14.9659C67.0348 13.9716 66.5282 13.1856 65.8558 12.6079C65.1835 12.0303 64.3454 11.7415 63.3416 11.7415C62.3284 11.7415 61.4761 12.0303 60.7848 12.6079C60.103 13.1856 59.5869 13.9716 59.2365 14.9659C58.8956 15.9602 58.7251 17.0918 58.7251 18.3608C58.7251 19.6297 58.8956 20.7614 59.2365 21.7557C59.5869 22.75 60.103 23.536 60.7848 24.1136C61.4761 24.6818 62.3284 24.9659 63.3416 24.9659Z" fill="black"/>
<path d="M87.8161 37.8636C85.8558 37.8636 84.1749 37.5937 82.7734 37.054C81.3814 36.5237 80.2734 35.7992 79.4496 34.8807C78.6257 33.9621 78.0907 32.9299 77.8445 31.7841L83.441 31.0312C83.6115 31.4668 83.8814 31.874 84.2507 32.2528C84.62 32.6316 85.1077 32.9347 85.7138 33.1619C86.3293 33.3987 87.0774 33.517 87.9581 33.517C89.2744 33.517 90.3587 33.1951 91.2109 32.5511C92.0727 31.9167 92.5036 30.8513 92.5036 29.3551V25.3636H92.2479C91.9827 25.9697 91.585 26.5426 91.0547 27.0824C90.5244 27.6221 89.8426 28.0625 89.0092 28.4034C88.1759 28.7443 87.1816 28.9148 86.0263 28.9148C84.388 28.9148 82.8965 28.536 81.5518 27.7784C80.2166 27.0114 79.1513 25.8418 78.3558 24.2699C77.5698 22.6884 77.1768 20.6903 77.1768 18.2756C77.1768 15.804 77.5793 13.7396 78.3842 12.0824C79.1892 10.4252 80.2592 9.18465 81.5945 8.36078C82.9392 7.53692 84.4117 7.12499 86.0121 7.12499C87.2337 7.12499 88.2564 7.33332 89.0803 7.74999C89.9041 8.15719 90.567 8.66855 91.0689 9.28408C91.5803 9.89014 91.9733 10.4867 92.2479 11.0739H92.4751V7.40908H98.4837V29.4403C98.4837 31.2964 98.0291 32.8494 97.12 34.0994C96.2109 35.3494 94.9515 36.2869 93.3416 36.9119C91.7412 37.5464 89.8994 37.8636 87.8161 37.8636ZM87.9439 24.3693C88.9193 24.3693 89.7431 24.1278 90.4155 23.6449C91.0973 23.1525 91.6181 22.4517 91.978 21.5426C92.3473 20.624 92.532 19.5256 92.532 18.2471C92.532 16.9687 92.352 15.8608 91.9922 14.9233C91.6323 13.9763 91.1115 13.2424 90.4297 12.7216C89.7479 12.2007 88.9193 11.9403 87.9439 11.9403C86.9496 11.9403 86.1115 12.2102 85.4297 12.75C84.7479 13.2803 84.2318 14.0189 83.8814 14.9659C83.531 15.9129 83.3558 17.0066 83.3558 18.2471C83.3558 19.5066 83.531 20.5956 83.8814 21.5142C84.2412 22.4233 84.7573 23.1288 85.4297 23.6307C86.1115 24.1231 86.9496 24.3693 87.9439 24.3693Z" fill="black"/>
<path d="M109.35 0.136353V29.2273H103.299V0.136353H109.35Z" fill="black"/>
<path d="M124.141 29.6534C121.896 29.6534 119.964 29.1989 118.345 28.2898C116.735 27.3712 115.495 26.0739 114.624 24.3977C113.752 22.7121 113.317 20.7187 113.317 18.4176C113.317 16.1733 113.752 14.2036 114.624 12.5085C115.495 10.8134 116.721 9.49241 118.303 8.54544C119.893 7.59847 121.759 7.12499 123.899 7.12499C125.339 7.12499 126.679 7.357 127.919 7.82101C129.169 8.27556 130.258 8.96211 131.186 9.88067C132.124 10.7992 132.853 11.9545 133.374 13.3466C133.894 14.7292 134.155 16.3485 134.155 18.2045V19.8665H115.732V16.1165H128.459C128.459 15.2453 128.269 14.4735 127.891 13.8011C127.512 13.1288 126.986 12.6032 126.314 12.2244C125.651 11.8362 124.879 11.642 123.999 11.642C123.08 11.642 122.266 11.8551 121.555 12.2812C120.855 12.6979 120.305 13.2614 119.908 13.9716C119.51 14.6723 119.306 15.4536 119.297 16.3153V19.8807C119.297 20.9602 119.496 21.893 119.893 22.679C120.301 23.465 120.874 24.071 121.612 24.4971C122.351 24.9233 123.227 25.1364 124.24 25.1364C124.912 25.1364 125.528 25.0417 126.087 24.8523C126.645 24.6629 127.124 24.3788 127.521 24C127.919 23.6212 128.222 23.1572 128.43 22.6079L134.027 22.9773C133.743 24.322 133.161 25.4962 132.28 26.5C131.409 27.4943 130.282 28.2708 128.899 28.8295C127.526 29.3788 125.94 29.6534 124.141 29.6534Z" fill="black"/>
</g>
</svg>
